<?xml version="1.0" encoding="UTF-8" standalone="no"?>
<svg
   viewBox="0 0 512 512"
   version="1.1"
   id="svg1"
   sodipodi:docname="gear-solid.svg"
   inkscape:version="1.3.2 (091e20ef0f, 2023-11-25, custom)"
   xmlns:inkscape="http://www.inkscape.org/namespaces/inkscape"
   xmlns:sodipodi="http://sodipodi.sourceforge.net/DTD/sodipodi-0.dtd"
   xmlns="http://www.w3.org/2000/svg"
   xmlns:svg="http://www.w3.org/2000/svg">
  <defs
     id="defs1" />
  <sodipodi:namedview
     id="namedview1"
     pagecolor="#ffffff"
     bordercolor="#000000"
     borderopacity="0.25"
     inkscape:showpageshadow="2"
     inkscape:pageopacity="0.0"
     inkscape:pagecheckerboard="0"
     inkscape:deskcolor="#d1d1d1"
     inkscape:zoom="0.8671875"
     inkscape:cx="256"
     inkscape:cy="256"
     inkscape:window-width="3840"
     inkscape:window-height="2160"
     inkscape:window-x="1920"
     inkscape:window-y="0"
     inkscape:window-maximized="1"
     inkscape:current-layer="svg1" />
  <!--!Font Awesome Free 6.6.0 by @fontawesome - https://fontawesome.com License - https://fontawesome.com/license/free Copyright 2024 Fonticons, Inc.-->
  <path
     d="m 495.9,166.6 c 3.2,8.7 0.5,18.4 -6.4,24.6 l -43.3,39.4 c 1.1,8.3 1.7,16.8 1.7,25.4 0,8.6 -0.6,17.1 -1.7,25.4 l 43.3,39.4 c 6.9,6.2 9.6,15.9 6.4,24.6 -4.4,11.9 -9.7,23.3 -15.8,34.3 l -4.7,8.1 c -6.6,11 -14,21.4 -22.1,31.2 -5.9,7.2 -15.7,9.6 -24.5,6.8 l -55.7,-17.7 c -13.4,10.3 -28.2,18.9 -44,25.4 l -12.5,57.1 c -2,9.1 -9,16.3 -18.2,17.8 -13.8,2.3 -28,3.5 -42.5,3.5 -14.5,0 -28.7,-1.2 -42.5,-3.5 -9.2,-1.5 -16.2,-8.7 -18.2,-17.8 l -12.5,-57.1 c -15.8,-6.5 -30.6,-15.1 -44,-25.4 l -55.6,17.8 c -8.8,2.8 -18.6,0.3 -24.5,-6.8 -8.1,-9.8 -15.5,-20.2 -22.1,-31.2 l -4.7,-8.1 C 25.7,368.8 20.4,357.4 16,345.5 12.8,336.8 15.5,327.1 22.4,320.9 L 65.7,281.5 C 64.6,273.1 64,264.6 64,256 c 0,-8.6 0.6,-17.1 1.7,-25.4 L 22.4,191.2 C 15.5,185 12.8,175.3 16,166.6 c 4.4,-11.9 9.7,-23.3 15.8,-34.3 l 4.7,-8.1 c 6.6,-11 14,-21.4 22.1,-31.2 5.9,-7.2 15.7,-9.6 24.5,-6.8 l 55.7,17.7 C 152.2,93.6 167,85 182.8,78.5 l 12.5,-57.1 c 2,-9.1 9,-16.3 18.2,-17.8 13.8,-2.4 28,-3.6 42.5,-3.6 14.5,0 28.7,1.2 42.5,3.5 9.2,1.5 16.2,8.7 18.2,17.8 l 12.5,57.1 c 15.8,6.5 30.6,15.1 44,25.4 l 55.7,-17.7 c 8.8,-2.8 18.6,-0.3 24.5,6.8 8.1,9.8 15.5,20.2 22.1,31.2 l 4.7,8.1 c 6.1,11 11.4,22.4 15.8,34.3 z"
     id="path1"
     sodipodi:nodetypes="cccscccccccccccscccccccccccscccccccccccscccccccccc" />
</svg>
